<?xml version="1.0" standalone="no"?>
<!DOCTYPE svg PUBLIC "-//W3C//DTD SVG 1.1//EN" "http://www.w3.org/Graphics/SVG/1.1/DTD/svg11.dtd">
<svg xmlns="http://www.w3.org/2000/svg" xmlns:xlink="http://www.w3.org/1999/xlink" width="1024" height="1024" viewBox="0 0 1024 1024">
	<path d="M518.332 89.6281C528.679 88.5272 542.15 92.4444 552.543 94.3678Q583.238 100.113 613.825 106.407L732.487 131.099C766.803 138.212 801.63 144.909 835.52 153.845L835.497 314.154C835.513 363.036 837.123 412.253 832.819 461.004Q829.313 496.718 822.133 531.878Q820.906 537.818 819.558 543.733Q818.211 549.647 816.744 555.533Q815.278 561.419 813.692 567.273Q812.106 573.128 810.402 578.95Q808.698 584.771 806.876 590.557Q805.054 596.343 803.116 602.091Q801.177 607.838 799.122 613.546Q797.068 619.253 794.898 624.917Q792.728 630.582 790.443 636.201Q788.159 641.82 785.762 647.392Q783.364 652.964 780.854 658.486Q778.344 664.008 775.722 669.478Q773.101 674.948 770.369 680.364Q767.637 685.78 764.797 691.14Q761.956 696.499 759.007 701.8Q756.058 707.101 753.002 712.341Q749.946 717.58 746.785 722.757Q743.623 727.934 740.358 733.046Q737.092 738.158 733.724 743.202Q730.355 748.247 726.885 753.222Q723.415 758.198 719.845 763.101Q716.275 768.005 712.606 772.836Q708.937 777.667 705.172 782.422Q701.406 787.177 697.544 791.855Q693.683 796.533 689.727 801.132Q685.772 805.73 681.724 810.248Q677.676 814.766 673.537 819.2Q669.399 823.635 665.171 827.985Q660.944 832.335 656.629 836.598Q652.314 840.861 647.913 845.037Q643.513 849.212 639.029 853.297Q634.545 857.382 629.979 861.375C596.658 890.389 559.845 914.804 523.217 939.361C522.616 939.657 522.366 939.864 521.709 939.908C517.736 940.17 506.245 931.184 502.541 928.692C460.487 900.388 421.124 869.818 385.221 833.916Q380.691 829.377 376.258 824.744Q371.825 820.111 367.49 815.385Q363.155 810.66 358.921 805.844Q354.686 801.029 350.554 796.125Q346.422 791.222 342.394 786.233Q338.365 781.243 334.443 776.17Q330.521 771.097 326.706 765.943Q322.891 760.789 319.185 755.555Q315.48 750.322 311.885 745.012Q308.29 739.702 304.808 734.317Q301.326 728.932 297.958 723.476Q294.59 718.019 291.337 712.493Q288.084 706.966 284.948 701.373Q281.813 695.78 278.795 690.121Q275.778 684.463 272.88 678.743Q269.982 673.022 267.206 667.242Q264.429 661.462 261.774 655.625Q259.119 649.788 256.588 643.896Q254.057 638.005 251.65 632.061Q249.243 626.117 246.962 620.124Q244.681 614.131 242.526 608.092Q240.371 602.052 238.344 595.968Q236.317 589.885 234.418 583.76Q232.519 577.635 230.749 571.472Q228.98 565.308 227.34 559.109Q225.701 552.909 224.192 546.677Q222.683 540.445 221.306 534.182Q219.928 527.919 218.683 521.629Q217.437 515.338 216.324 509.023Q215.212 502.708 214.232 496.371Q213.252 490.034 212.406 483.677Q211.559 477.321 210.847 470.948C205.561 424.084 207.057 377.163 207.029 330.116L206.52 154.101C213.23 152.366 220.127 151.127 226.876 149.481Q300.42 131.575 374.821 117.657L518.332 89.6281ZM518.171 123.118C497.723 127.528 477.084 131.011 456.539 134.937L327.717 159.836Q300.072 165.192 272.642 171.56C261.406 174.236 250.075 177.979 238.708 179.866C238.302 196.643 238.571 213.482 238.565 230.266L238.535 321.411C238.514 365.772 237.221 410.228 241.127 454.472Q241.639 460.672 242.285 466.86Q242.93 473.048 243.709 479.221Q244.488 485.393 245.399 491.548Q246.31 497.702 247.354 503.836Q248.397 509.969 249.572 516.078Q250.747 522.188 252.054 528.271Q253.36 534.354 254.797 540.407Q256.234 546.46 257.801 552.481Q259.368 558.502 261.064 564.488Q262.76 570.474 264.584 576.422Q266.409 582.37 268.361 588.277Q270.313 594.185 272.392 600.049Q274.47 605.912 276.675 611.73Q278.879 617.548 281.208 623.317Q283.537 629.086 285.99 634.804Q288.443 640.522 291.018 646.185Q293.593 651.849 296.289 657.456Q298.986 663.062 301.802 668.61Q304.619 674.158 307.554 679.643Q310.489 685.129 313.542 690.55Q316.594 695.971 319.763 701.325Q322.931 706.68 326.214 711.964Q329.497 717.249 332.893 722.462Q336.289 727.675 339.796 732.814Q343.303 737.953 346.92 743.015Q350.537 748.077 354.262 753.06Q357.988 758.043 361.819 762.944Q365.651 767.846 369.587 772.664Q373.523 777.482 377.562 782.215Q381.6 786.947 385.74 791.591Q389.88 796.236 394.119 800.79Q398.357 805.344 402.693 809.806C433.334 841.948 469.456 869.55 505.816 894.878C508.484 896.736 518.304 904.395 520.747 904.272C521.832 904.217 522.392 903.713 523.264 903.126C557.879 880.2 593.357 854.897 623.799 826.743Q627.738 823.053 631.605 819.288Q635.472 815.523 639.266 811.685Q643.061 807.846 646.781 803.936Q650.501 800.026 654.146 796.045Q657.791 792.065 661.359 788.015Q664.927 783.965 668.417 779.848Q671.907 775.731 675.317 771.547Q678.727 767.364 682.057 763.116Q685.387 758.869 688.634 754.558Q691.882 750.247 695.047 745.875Q698.212 741.503 701.292 737.071Q704.372 732.639 707.367 728.149Q710.362 723.659 713.271 719.113Q716.18 714.566 719.001 709.965Q721.822 705.364 724.554 700.709Q727.287 696.055 729.93 691.349Q732.572 686.643 735.125 681.887Q737.677 677.132 740.138 672.328Q742.599 667.525 744.967 662.675Q747.336 657.825 749.611 652.931Q751.886 648.037 754.068 643.1Q756.249 638.163 758.335 633.185Q760.421 628.208 762.412 623.191Q764.403 618.174 766.297 613.12Q768.191 608.066 769.988 602.977Q771.786 597.888 773.485 592.765Q775.185 587.642 776.786 582.488Q778.387 577.334 779.889 572.15Q781.391 566.966 782.794 561.754Q784.197 556.542 785.499 551.305Q786.802 546.067 788.004 540.805Q789.207 535.544 790.308 530.26Q794.817 508.146 797.793 485.773Q800.77 463.401 802.199 440.877C804.907 396.706 803.489 352.485 803.44 308.271C803.392 265.659 804.466 222.907 803.034 180.318C793.985 178.551 785.084 175.952 776.138 173.724Q758.751 169.465 741.243 165.739Q659.883 148.675 578.25 132.974C565.272 130.444 529.202 121.378 518.171 123.118Z"/>
	<path d="M568.012 166.714Q575.019 166.578 582.02 166.263Q577.86 167.788 573.969 169.909Q570.079 172.03 566.544 174.701C557.793 181.368 551.391 190.453 547.25 200.586C541.963 213.522 540.416 227.885 538.214 241.605Q533.686 268.954 530.096 296.441C529.03 304.749 528.471 313.108 527.341 321.408C534.755 304.579 538.23 284.895 541.867 266.972C545.547 248.84 548.307 228.183 559.633 212.955C569.716 199.4 585.496 195.6 601.364 193.241C594.975 197.238 589.285 203.153 585.814 209.866C577.57 225.815 575.664 244.994 569.559 261.885C560.996 285.573 547.448 307.166 541.728 331.927Q555.746 308.241 567.136 283.185C571.316 273.809 574.675 264.077 578.905 254.722C587.874 234.886 596.82 225.751 617.106 218.068C604.928 232.807 605.769 253.325 599.66 270.601C595.517 282.317 588.518 292.927 581.883 303.35C586.218 300.242 591.131 297.173 594.86 293.356C608.184 279.721 610.73 257.56 624.182 242.078C629.718 235.707 636.618 230.726 644.035 226.761C659.155 218.678 676.214 215.08 692.04 208.665C701.984 204.634 710.959 198.454 721.049 194.716C724.953 193.27 728.528 192.518 732.677 192.215C731.499 192.73 730.32 193.257 729.185 193.862C725.703 195.715 722.614 198.791 720.337 202.002C716.607 207.259 714.442 213.576 711.742 219.392C708.098 227.237 703.891 234.775 701.286 243.06C709.903 236.205 717.532 228.424 725.98 221.431C719.557 233.277 717.612 246.939 711.313 258.828C706.658 267.613 698.349 273.793 693.619 282.697C705.43 278.627 714.253 271.44 724.722 264.986C716.419 282.013 707.328 297.297 689.35 305.41C683.788 307.92 677.876 309.317 672.372 312.058L672.139 312.929C672.51 313.349 672.528 313.427 673.095 313.745C674.94 314.777 678.119 314.606 680.189 314.574C691.26 314.398 701.245 311.638 711.514 307.696C705.009 312.972 699.585 319.289 692.51 323.939C656.702 347.47 632.592 323.089 596.772 327.215C613.692 328.757 622.829 333.546 638.361 338.919C646.317 341.672 654.57 343.314 662.545 346.002C676.655 350.758 691.724 359.949 703.266 369.157C730.86 391.173 742.546 417.09 746.322 451.563C743.069 443.444 738.033 435.898 732.432 429.215C709.405 401.735 651.259 371.789 615.826 368.651C626.417 374.275 638.241 377.178 649.1 382.362C686.968 400.438 721.149 429.371 735.343 470.038C744.829 497.219 747.1 532.951 734.449 559.381C738.046 533.951 723.912 499.324 710.839 477.883C690.155 443.959 651.645 400.729 611.704 391.052C619.16 395.266 627.285 398.195 634.638 402.602C645.495 409.109 654.518 419.33 662.68 428.901C684.985 455.057 704.794 484.796 713.108 518.55C721.34 551.978 718.621 585.269 702.617 616.044C697.791 625.324 691.855 633.77 686.455 642.689C691.105 620.25 689.368 593.643 684.461 571.332C680.572 553.647 674.586 539.67 665.29 524.16C662.338 519.235 659.511 513.834 654.562 510.662L653.782 510.891C653.082 515.021 657.184 522.73 658.723 526.714C661.185 533.084 663.827 539.558 665.732 546.117C680.13 595.708 675.534 648.127 642.194 689.45C638.701 693.779 635.039 697.998 631.022 701.851C621.799 710.699 614.645 716.014 609.332 728.019C641.871 712.039 655.572 693.526 673.345 663.515C681.259 663.413 689.173 664.062 697.091 664.03C709.095 663.981 721.056 663.386 733.072 663.618C687.779 750.168 636.159 811.336 556.511 867.79C547.164 874.416 537.62 880.691 528.109 887.073C525.529 888.803 522.795 891.461 519.953 892.583C506.771 884.416 494.458 875.001 482.103 865.652C426.853 823.839 379.506 774.936 340.917 717.297C329.773 700.652 320.468 682.996 310.3 665.759C321.332 663.677 332.756 664.948 343.911 664.665C351.581 664.47 359.175 663.341 366.86 663.545C367.881 664.878 368.734 666.358 369.635 667.773C385.095 692.046 405.344 720.505 435.203 727.122C426.297 712.053 422.919 711.939 410.838 700.814C395.462 686.656 384.731 668.78 377.611 649.255C364.435 613.125 367.316 572.233 381.031 536.664C383.936 529.131 387.996 522.292 391.325 514.973C392.028 513.428 391.965 512.867 391.383 511.281C390.453 510.613 390.576 510.407 389.377 510.575C386.317 513.095 383.788 516.493 381.432 519.658C354.927 555.266 349.167 600.426 355.536 643.381L354.625 641.757C349.948 633.425 343.528 626.208 338.837 617.844C325.315 593.737 322.256 562.481 326.318 535.501C334.738 479.582 370.492 431.046 415.192 398.119C399.48 404.779 385.207 415.178 372.935 426.954C347.103 451.743 322.249 485.748 312.911 520.732C309.356 534.05 308.28 547.722 307.981 561.448C298.284 530.603 297.904 498.985 308.033 468.182C320.501 430.264 356.367 401.616 391.352 384.748C403.588 378.849 416.603 374.829 428.757 368.667C403.576 370.395 379.002 383.086 356.923 394.417C332.334 407.037 306.783 423.353 297.886 451.081C298.762 435.079 301.843 419.916 309.2 405.568C326.098 372.61 357.058 354.15 390.923 342.424C396.447 340.511 402.19 339.326 407.728 337.464C416.532 334.503 425.017 330.729 433.89 327.909C420.58 327.742 407.563 331.63 394.425 333.212C376.108 335.418 358.001 331.682 343.221 320.239C338.705 316.741 334.903 312.413 330.388 308.899L329.83 308.469C345.047 312.359 356.237 314.22 372.055 313.973C365.68 310.141 358.683 307.54 351.949 304.428C332.957 295.655 325.678 283.598 316.83 265.458C326.634 273.964 336.953 280.511 349.708 283.294C338.219 272.403 328.881 259.994 323.833 244.855C321.188 236.922 319.115 229.22 315.233 221.745C322.491 230.425 330.799 237.517 340.288 243.65Q335.851 233.69 331.573 223.661C326.281 211.099 322.37 200.429 311.538 191.575C324.624 195.996 334.588 202.841 346.933 208.024C369.807 217.628 394.623 220.54 413.857 237.858C436.883 258.589 432.955 289.352 461.671 303.552C452.318 291.849 444.099 278.944 439.745 264.498C433.466 243.667 438.078 226.617 448.148 208.045Q448.056 208.76 447.977 209.477C446.428 223.569 453.801 236 459.084 248.505C463.005 257.786 466.227 267.27 470.514 276.416C478.308 293.042 487.91 308.297 497.507 323.908C500.323 328.487 502.759 333.686 506.104 337.882C499.069 314.529 485.006 291.229 474.737 268.845C466.205 250.247 459.201 229.54 466.839 209.41C474.246 189.885 489.298 179.991 507.522 171.771Q506.768 172.269 506.035 172.798C497.151 179.224 493.634 187.177 491.912 197.774C486.602 230.466 498.341 268.816 508.592 299.554C510.851 306.328 512.763 315.245 516.907 321.046C515.793 312.702 514.791 304.234 512.968 296.012C509.061 278.399 503.649 260.964 502.164 242.909C500.572 223.539 503.783 205.024 516.797 189.952C529.66 175.055 548.864 168.219 568.012 166.714ZM481.237 612.665C479.996 612.765 477.951 612.522 477.109 613.59C474.66 616.697 473.227 622.357 471.979 626.089C465.775 644.635 460.049 666.202 465.12 685.657C469.084 700.86 479.028 714.599 492.669 722.545C499.72 726.652 507.305 728.876 515.38 729.747L515.485 770.747C515.575 781.353 517.045 792.456 514.822 802.909C513.797 807.727 511.69 812.292 508.215 815.84C500.215 824.006 486.563 825.495 475.713 826.108C475.795 829.257 475.77 832.292 475.47 835.429C503.949 837.228 532.848 836.519 561.396 836.395L566.537 836.236L566.435 824.52C555.771 824.514 542.936 824.825 534.752 816.73C524.141 806.234 527.437 777.772 527.685 763.502C527.882 752.192 527.131 740.725 527.814 729.454C544.411 727.285 557.694 720.202 568.074 706.729C578.358 693.379 581.537 676.113 579.288 659.685C577.847 649.159 574.726 638.503 570.944 628.57C568.93 623.278 566.36 617.958 564.909 612.495Q539.955 612.623 515.001 612.402C503.772 612.338 492.451 612.028 481.237 612.665ZM519.672 524.21C507.065 525.415 493.441 536.494 485.644 545.894C480.72 551.831 476.699 559.381 477.653 567.339C478.249 572.303 480.913 576.615 484.828 579.666C495.031 587.616 511.49 588.8 523.875 588.516C536.391 588.383 551.632 586.494 561.046 577.256C564.17 574.191 566.073 570.386 566.052 565.961C566.005 556.192 558.659 547.304 551.906 540.988C542.947 532.61 532.289 524.887 519.672 524.21ZM414.719 409.514C398.735 426.747 390.146 448.735 391.047 472.252C391.962 496.126 401.498 516.522 419.057 532.672C425.66 538.745 433.118 544.435 441.589 547.609C446.429 549.423 451.613 550.822 456.02 553.576C463.19 558.058 468.273 565.8 475.132 570.942C471.474 563.741 467.683 556.591 464.885 548.999C456.705 526.802 457.084 501.894 464.336 479.506C467 471.286 470.842 463.597 474.712 455.898C467.018 459.814 462.935 465.715 459.251 473.347C447.355 500.464 448.78 517.189 454.566 545.006C434.042 537.234 418.626 524.95 409.446 504.511C407.041 499.156 405.445 493.53 403.938 487.871C416.824 508.192 425.664 520.51 449.556 527.915C449.416 520.681 449.293 513.471 449.516 506.238C445.65 504.518 441.658 502.868 438.052 500.643C426.024 493.224 416.73 480.311 411.678 467.265C405.636 451.663 406.154 435.041 411.537 419.355C412.315 417.087 414.914 411.699 414.719 409.514ZM629.472 412.367C636.431 431.971 637.494 453.791 628.356 472.927C620.708 488.944 606.842 498.631 591.747 506.981C588.624 487.775 585.235 467.887 568.449 455.729Q567.655 455.154 566.842 454.607C570.264 461.717 573.98 468.792 576.872 476.135C585.147 497.144 588.311 521.691 580.765 543.381C577.77 551.988 573.214 559.973 570.152 568.58C578.811 563.877 580.274 558.687 587.061 554.036C591.943 550.69 598.015 549.097 603.44 546.801C614.43 542.15 626.881 530.793 634.482 521.75C647.513 505.076 653.32 481.45 650.696 460.449C649.696 452.447 648.116 445.177 644.782 437.817C648.123 466.171 646.219 494.216 627.781 517.512Q626.846 518.711 625.868 519.875Q624.89 521.039 623.869 522.166Q622.849 523.293 621.788 524.382Q620.727 525.471 619.627 526.521Q618.526 527.57 617.388 528.578Q616.25 529.586 615.076 530.552Q613.902 531.518 612.693 532.44Q611.484 533.362 610.242 534.24Q609 535.117 607.727 535.948Q606.454 536.778 605.151 537.562Q603.848 538.346 602.517 539.081Q601.187 539.817 599.83 540.503Q598.473 541.189 597.092 541.824Q595.711 542.46 594.307 543.045Q592.904 543.629 591.48 544.162Q590.056 544.695 588.613 545.175C589.72 540.066 590.803 534.942 592.454 529.973C615.238 519.859 629.276 508.687 638.514 484.771C645.431 466.864 647.438 444.755 639.362 426.865C637.07 421.788 633.676 416.059 629.472 412.367ZM425.638 554.317C409.75 576.874 407.737 607.941 408.767 634.76C409.014 641.185 409.097 647.74 410.183 654.089C412.344 666.725 430.089 700.583 438.711 710.256C444.376 716.613 451.977 721.467 457.018 728.296C458.284 730.056 459.432 732.023 461.265 733.232L462.215 733.125C463.355 731.08 462.69 727.824 462.039 725.69C459.118 716.124 450.894 707.501 445.534 699.138C424.475 666.279 417.69 631.47 420.895 592.824Q421.885 581.263 423.968 569.849C424.71 565.677 425.794 561.427 426.277 557.225C426.41 556.063 426.206 555.339 425.638 554.317ZM616.039 554.652C616.035 554.847 616.028 555.041 616.027 555.236C615.977 562.56 618.657 569.891 619.836 577.094C621.635 588.088 622.511 599.489 622.777 610.626C623.873 656.4 608.632 680.966 587.541 719.108C582.734 727.802 577.456 736.411 573.56 745.56C576.318 743.939 578.401 741.922 580.657 739.689C597.79 721.51 622.469 689.264 629.427 665.299C633.488 651.309 634.216 634.455 633.767 619.915C633.195 601.423 629.981 583.412 623.441 566.068C622.291 563.018 620.637 558.205 618.261 555.92C617.533 555.219 616.979 554.956 616.039 554.652ZM349.23 230.307C359.927 248.678 373.448 250.746 388.796 263.178C402.689 274.433 411.63 288.581 420.208 303.958C401.703 300.637 383.463 294.151 368.455 282.642C371.298 286.64 374.092 290.51 377.605 293.961C392.531 305.395 412.378 310.546 430.922 311.625C427.636 303.123 424.568 294.372 420.356 286.282C411.799 269.848 397.217 256.494 381.2 247.464C375.324 244.152 369.172 241.488 363.16 238.459C358.614 236.169 354.522 232.833 350.005 230.632C349.753 230.509 349.488 230.415 349.23 230.307ZM692.3 231.514C681.944 237.363 670.793 241.721 660.5 247.647C637.733 260.754 619.558 283.181 612.523 308.611Q612.084 310.202 611.677 311.801L612.392 311.601C617.492 310.208 622.776 309.862 627.96 308.897C640.628 306.536 653.757 301.12 664.272 293.694C668.218 291.112 670.864 288.443 673.726 284.712C658.415 294.307 639.851 299.392 622.275 303.046C629.186 291.512 634.801 279.815 644.474 270.228Q651.03 263.628 658.677 258.331C669.064 251.059 679.519 245.651 688.511 236.424C689.918 234.98 691.636 233.486 692.649 231.746L692.3 231.514ZM444.456 345.196C434.011 346.375 427.098 350.053 419.458 357.188C433.376 353.024 447.467 348.466 461.231 355.777C471.496 361.23 476.563 371.024 480.906 381.334C482.694 385.845 484.97 397.123 489.566 399.164C490.489 398.418 490.258 398.868 490.417 397.671C491.918 386.368 484.567 368.053 477.401 359.346C470.912 351.462 462.191 346.097 451.915 345.208C449.494 344.999 446.865 344.902 444.456 345.196ZM592.753 345.197C581.097 346.265 572.183 351.731 564.748 360.696C556.039 371.196 549.834 388.245 549.312 401.806C555.541 395.215 558.923 386.494 562.636 378.351C567.797 367.466 576.209 357.16 587.902 353.076C600.253 348.762 612.649 352.933 624.881 355.483C616.944 348.168 604.622 344.907 593.996 345.101C593.415 345.112 593.265 345.138 592.753 345.197ZM514.089 421.669C495.964 424.23 483.802 432.193 472.215 445.995C472.419 445.903 472.624 445.813 472.826 445.718C478.358 443.136 483.392 439.452 488.652 436.361C501.514 428.802 515.96 425.752 530.741 427.632C546.755 430.501 559.05 437.857 572.05 447.283C562.442 433.892 548.757 424.969 532.383 422.3C526.371 421.32 520.157 421.24 514.089 421.669ZM516.845 508.637C504.135 510.46 489.176 519.782 481.509 530.044C478.629 533.897 477.243 537.635 476.022 542.252C487.819 529.13 501.342 514.346 520.377 513.441C522.797 513.326 525.481 513.424 527.875 513.81Q529.924 514.37 531.931 515.069Q533.937 515.768 535.891 516.601Q537.846 517.435 539.739 518.4Q541.631 519.365 543.454 520.457Q545.277 521.548 547.021 522.762Q548.765 523.975 550.422 525.304Q552.08 526.634 553.643 528.073Q555.206 529.512 556.667 531.054C560.396 534.922 563.813 539.168 567.897 542.669C567.012 534.104 558.28 526.378 551.946 521.241C541.364 512.659 530.575 507.793 516.845 508.637ZM515.813 467.181C503.4 468.813 491.849 472.808 483.989 483.108C481.876 485.878 480.221 488.872 478.91 492.098C491.717 479.921 505.804 472.09 523.881 472.526C525.599 472.567 527.285 472.813 528.979 473.082C543.692 476.02 553.976 482.02 564.301 492.834C558.802 481.216 550.382 474.206 538.277 469.843Q536.936 469.354 535.57 468.944Q534.203 468.533 532.815 468.203Q531.427 467.872 530.022 467.622Q528.617 467.373 527.2 467.205Q525.783 467.037 524.358 466.951Q522.934 466.866 521.507 466.863Q520.08 466.86 518.655 466.939Q517.231 467.019 515.813 467.181ZM516.494 489.681C503.717 491.307 492.879 496.368 484.849 506.701C482.637 509.547 480.738 512.698 478.969 515.835C492.622 504.642 505.264 493.368 524.272 495.204Q525.765 495.355 527.247 495.591C542.664 498.921 552.738 506.389 564.027 517.076C557.285 504.916 547.787 495.167 534.12 491.228C528.55 489.623 522.259 488.924 516.494 489.681ZM446.614 317.107C460.511 324.777 474.429 331.07 485.274 343.117C490.399 348.81 494.3 356.031 497.184 363.094C498.373 366.009 499.416 369.692 501.101 372.317C501.719 373.28 502.48 373.692 503.473 374.212C503.474 359.64 496.284 345.621 486.097 335.43C476.616 325.946 461.8 316.875 447.945 317.029C447.501 317.034 447.057 317.073 446.614 317.107ZM515.799 443.697Q514.668 443.782 513.543 443.923Q512.418 444.065 511.301 444.262Q510.185 444.459 509.079 444.712Q507.974 444.964 506.882 445.271Q505.791 445.578 504.716 445.94Q503.641 446.301 502.585 446.715Q501.53 447.129 500.496 447.595Q499.462 448.062 498.453 448.579Q497.444 449.096 496.462 449.662Q495.48 450.229 494.527 450.844Q493.574 451.459 492.653 452.12Q491.732 452.782 490.845 453.488Q489.958 454.195 489.108 454.945Q488.257 455.694 487.445 456.486Q486.632 457.277 485.861 458.107Q485.089 458.938 484.359 459.806C482.745 461.706 481.311 463.687 479.939 465.765C493.921 456.288 507.076 448.237 524.714 449.693C539.468 451.33 549.757 457.078 561.817 465.399C551.631 454.276 540.651 444.242 524.768 443.494Q520.277 443.298 515.799 443.697ZM590.319 318.131C574.271 321.198 559.258 329.48 549.911 343.211C546.096 348.817 538.507 363.323 539.691 370.338C539.826 371.134 540.01 371.473 540.533 372.057L541.786 372.229C542.666 371.465 542.888 370.968 543.237 369.864C548.97 351.645 560.779 335.583 577.905 326.508C582.349 324.153 592.081 321.067 595.337 318.276C593.899 317.649 591.846 317.853 590.319 318.131ZM566.483 415.071C579.822 423.798 588.93 434.592 596.313 448.678C598.585 453.012 600.691 457.15 601.701 461.976C602.461 465.611 603.004 474.391 605.815 476.849L607.284 477.089C608.585 458.85 601.577 441.813 589.615 428.116C584.323 422.056 577.108 415.794 568.753 415.076C567.99 415.011 567.246 415.041 566.483 415.071ZM474.584 413.452C459.442 419.448 448.543 430.102 442.095 445.111C438.891 452.569 433.594 467.661 436.727 475.581L437.376 476.197C441.914 457.962 446.396 444.414 458.596 429.562C463.119 424.056 475.481 415.422 475.368 414.378C475.338 414.098 475.12 413.873 474.996 413.62L474.584 413.452ZM579.168 384.662C575.484 385.315 572.678 386.085 570.446 389.315C567.66 393.347 567.458 399.269 566.988 404C569.435 399.753 571.509 396.153 575.999 393.771C581.753 392.493 591.231 392.635 596.032 389.497L596.425 388.473C595.618 386.986 594.213 386.358 592.65 385.871C588.51 384.58 583.472 384.793 579.168 384.662ZM590.482 365.723C585.496 366.345 581.054 367.748 577.807 371.832C575.467 374.775 574.408 378.14 573.375 381.681C576.923 381.456 580.234 381.109 583.699 380.277C586.735 377.918 587.377 371.775 590.657 370.316C594.264 368.713 600.201 372.048 600.984 366.492C599.442 365.036 595.377 365.539 593.299 365.596Q591.889 365.623 590.482 365.723ZM441.911 365.452C441.795 366.285 441.397 367.02 442.005 367.697C443.956 369.873 449.51 369.856 452.375 370.216C453.757 373.353 455.089 376.458 456.195 379.704C459.749 380.15 463.231 380.637 466.819 380.502C467.696 377.957 467.753 376.271 466.475 373.841C464.388 369.871 459.73 367.74 455.607 366.593C451.255 365.382 446.398 365.211 441.911 365.452ZM454.463 385.201C451.161 385.525 449.151 385.672 446.605 388.045L446.226 389.188C448.037 391.285 451.052 391.288 453.674 391.492C460.499 392.023 465.848 392.689 471.228 397.453C472.167 398.892 472.589 399.95 474.126 400.759C474.845 400.027 475.003 399.889 475.036 398.8C475.136 395.467 472.801 391.648 470.459 389.436C466.705 385.889 461.709 384.778 456.686 385.002C455.932 385.036 455.208 385.086 454.463 385.201ZM518.649 399.699C507.813 400.441 500.489 404.08 493.246 412.137C499.359 408.818 505.418 405.647 512.379 404.642C516.566 404.128 520.652 403.683 524.874 403.921C527.759 404.084 537.639 406.281 539.656 405.611C539.841 405.549 539.908 405.312 540.034 405.162C535.011 400.441 525.233 399.521 518.649 399.699Z"/>
	<path d="M533.221 545.852C535.61 546.691 538.014 547.808 540.116 549.226C545.078 552.576 547.55 556.774 548.586 562.546C547.681 565.769 546.746 567.458 544.151 569.61C543.515 569.707 542.894 569.808 542.248 569.8C538.875 569.758 535.553 568.182 533.203 565.804Q532.658 565.245 532.173 564.634Q531.688 564.023 531.267 563.365Q530.846 562.708 530.493 562.011Q530.141 561.315 529.861 560.586Q529.582 559.858 529.377 559.104Q529.173 558.351 529.045 557.581Q528.918 556.811 528.87 556.032Q528.821 555.253 528.852 554.473C529.033 550.591 530.382 548.368 533.221 545.852Z"/>
	<path d="M505.512 545.974C507.168 545.965 508.41 545.977 509.864 546.861C511.461 547.831 512.521 549.726 512.917 551.506C513.829 555.605 512.41 560.654 510.195 564.119C507.933 567.655 505.659 569.009 501.623 569.893C499.304 569.623 496.217 568.705 494.854 566.622C493.73 564.906 493.551 563.177 493.898 561.196C495.072 554.489 500.313 549.782 505.512 545.974Z"/>
	<path d="M475.548 651.526C488.456 651.398 501.347 651.945 514.25 651.977C531.933 652.022 549.608 651.465 567.296 651.628C568.267 657.357 569.188 663.127 569.321 668.947C569.633 682.671 564.538 694.087 555.146 703.901C545.373 712.757 534.332 718.085 520.934 717.862C508.009 717.646 495.842 712.757 486.924 703.301C472.88 688.408 475.026 670.44 475.548 651.526ZM494.72 660.761L485.166 661.003C483.704 674.047 483.362 685.234 492.016 696.011C497.478 702.813 504.482 707.021 513.086 708.472C516.287 708.42 519.491 708.429 522.673 708.042C511.496 702.545 499.144 695.805 494.975 683.182C493.42 678.473 492.996 672.507 494.076 667.623C494.524 665.596 495.687 662.867 495.323 660.824L494.72 660.761Z"/>
</svg>